<?xml version="1.0" encoding="utf-8"?>
<svg id="Layer_2" data-name="Layer 2" viewBox="0 0 384 384" xmlns="http://www.w3.org/2000/svg">
  <defs>
    <style>
      .cls-1 {
        fill: #dfdfdf;
      }

      .cls-1, .cls-2 {
        stroke-width: 0px;
      }

      .cls-2 {
        fill: #fff;
      }
    </style>
  </defs>
  <g id="Layer_1-2" data-name="Layer 1" transform="matrix(1, 0, 0, 1, 401.03598, -5.064748)">
    <rect x="-401.693" y="4.428" width="384.131" height="384.131" style="stroke: rgb(0, 0, 0); paint-order: fill; fill: rgb(38, 38, 38);" rx="59.135" ry="59.135"/>
    <path class="cls-2" d="M -324.555 264.881 C -344.815 239.561 -355.665 211.141 -351.395 178.151 C -348.285 154.141 -338.845 132.811 -323.325 114.321 C -307.205 95.101 -287.085 81.811 -262.925 74.671 C -246.145 69.711 -229.075 68.311 -211.825 70.531 C -179.185 74.731 -152.245 89.751 -131.205 114.951 C -114.695 134.731 -105.435 157.711 -103.145 183.391 C -102.835 186.891 -101.775 187.751 -98.365 187.381 C -92.405 186.751 -86.395 186.531 -80.405 186.381 C -77.765 186.311 -76.815 185.501 -77.275 182.821 C -78.675 174.711 -79.415 166.451 -81.385 158.491 C -87.745 132.681 -99.975 109.821 -118.495 90.741 C -146.135 62.261 -179.775 46.341 -219.705 44.301 C -236.815 43.431 -253.675 45.071 -270.045 50.041 C -306.375 61.071 -335.025 82.611 -355.115 114.821 C -372.795 143.151 -380.875 174.091 -376.945 207.601 C -375.135 223.061 -370.275 237.731 -363.405 251.651 C -350.605 277.571 -331.975 298.381 -307.295 313.491 C -299.275 318.401 -290.645 322.301 -281.795 326.931 C -278.005 318.461 -274.635 310.911 -271.195 303.211 C -272.495 302.571 -273.245 302.151 -274.035 301.841 C -294.025 293.821 -311.125 281.701 -324.575 264.881 L -324.555 264.881 Z"/>
    <path class="cls-1" d="M -34.625 242.111 C -34.635 239.991 -34.755 237.851 -35.055 235.761 C -36.085 228.681 -39.505 222.861 -46.535 220.971 C -82.515 211.291 -118.595 201.961 -154.645 192.561 C -163.715 190.191 -169.605 184.671 -172.435 175.691 C -176.165 163.851 -183.255 154.091 -193.335 147.181 C -209.555 136.071 -227.205 133.141 -246.385 139.461 C -276.465 149.361 -298.125 186.641 -277.045 220.141 C -270.665 230.291 -261.995 237.711 -251.135 242.631 C -248.595 243.781 -245.775 244.971 -244.135 241.341 C -241.265 234.991 -238.525 228.581 -235.685 222.071 C -238.145 220.991 -240.375 220.171 -242.445 219.061 C -253.645 213.051 -261.195 203.661 -260.555 191.021 C -259.795 175.961 -247.845 163.541 -232.085 161.631 C -213.415 159.371 -198.315 171.191 -193.965 189.631 C -191.765 198.941 -186.195 205.671 -176.435 208.231 C -139.745 217.831 -103.055 227.451 -66.385 237.161 C -64.775 237.591 -63.405 238.931 -61.925 239.841 C -63.115 241.451 -63.955 243.711 -65.545 244.561 C -83.125 253.991 -100.795 263.261 -118.505 272.461 C -147.845 287.701 -177.215 302.901 -206.655 317.961 C -208.485 318.901 -211.925 319.381 -213.015 318.361 C -214.235 317.221 -214.415 313.851 -213.725 311.931 C -207.675 295.131 -201.325 278.451 -195.075 261.721 C -191.805 252.951 -188.405 244.221 -185.395 235.361 C -183.355 229.381 -186.315 223.161 -191.325 221.791 C -197.075 220.211 -204.555 224.241 -206.455 229.881 C -207.645 233.431 -208.865 236.961 -210.165 240.471 C -219.105 264.691 -228.155 288.881 -236.975 313.151 C -239.435 319.921 -240.545 326.961 -236.875 333.791 C -231.205 344.351 -219.115 346.541 -207.765 341.801 C -202.835 339.741 -198.245 336.841 -193.475 334.381 C -143.755 308.731 -94.065 283.001 -44.255 257.541 C -37.595 254.131 -34.575 249.291 -34.615 242.141 L -34.625 242.111 Z" style="fill: rgb(234, 255, 0);"/>
    <path class="cls-2" d="M -290.085 234.411 C -302.825 217.721 -309.655 199.381 -304.795 177.871 C -296.455 140.991 -263.785 113.281 -222.565 115.661 C -183.885 117.891 -152.865 148.281 -149.355 185.441 C -149.035 188.801 -147.515 190.151 -144.385 189.991 C -138.145 189.681 -131.915 189.281 -125.675 188.991 C -123.435 188.891 -122.665 188.021 -122.935 185.691 C -125.155 167.071 -130.905 149.811 -141.825 134.371 C -167.325 98.341 -211.575 81.801 -254.035 93.381 C -291.165 103.511 -315.765 127.431 -327.595 164.031 C -333.025 180.831 -333.805 197.901 -328.605 215.151 C -322.235 236.281 -310.355 253.531 -293.385 267.401 C -284.335 274.791 -274.175 280.241 -262.835 284.401 C -259.335 276.601 -255.945 269.011 -252.395 261.091 C -253.335 260.561 -253.835 260.171 -254.405 259.981 C -268.825 254.981 -280.875 246.481 -290.095 234.411 L -290.085 234.411 Z" style=""/>
  </g>
</svg>